<svg width="48" height="39" viewBox="0 0 48 39" fill="none" xmlns="http://www.w3.org/2000/svg">
<path d="M14.146 18.1673C18.7151 16.0367 21.1237 11.5316 19.5257 8.10476C17.9278 4.67797 12.9285 3.62719 8.3594 5.75777C3.79034 7.88836 1.38178 12.3935 2.97972 15.8203C4.57766 19.2471 9.57699 20.2979 14.146 18.1673Z" fill="#F0F4FF"/>
<path d="M33.9185 18.1673C38.4875 20.2979 43.4869 19.2471 45.0848 15.8203C46.6827 12.3935 44.2742 7.88837 39.7051 5.75779C35.1361 3.6272 30.1367 4.67799 28.5388 8.10478C26.9409 11.5316 29.3494 16.0367 33.9185 18.1673Z" fill="#F0F4FF"/>
<path d="M24.0323 31.1319C32.0985 31.1319 38.6375 24.5929 38.6375 16.5267C38.6375 8.46048 32.0985 1.92151 24.0323 1.92151C15.966 1.92151 9.42707 8.46048 9.42707 16.5267C9.42707 24.5929 15.966 31.1319 24.0323 31.1319Z" fill="#FFB627"/>
<path d="M24.0323 31.1319C32.0985 31.1319 38.6375 24.5929 38.6375 16.5267C38.6375 8.46048 32.0985 1.92151 24.0323 1.92151C15.966 1.92151 9.42707 8.46048 9.42707 16.5267C9.42707 24.5929 15.966 31.1319 24.0323 31.1319Z" fill="url(#paint0_radial_2027_60)" fill-opacity="0.2"/>
<path d="M30.6502 16.5267L17.4143 16.5267C16.532 16.5267 15.8168 17.2419 15.8168 18.1241C15.8168 19.0064 16.532 19.7216 17.4143 19.7216L30.6502 19.7216C31.5325 19.7216 32.2477 19.0064 32.2477 18.1241C32.2477 17.2419 31.5325 16.5267 30.6502 16.5267Z" fill="#744D1F"/>
<path d="M30.6503 22.4601L17.4143 22.4601C16.532 22.4601 15.8168 23.1753 15.8168 24.0575C15.8168 24.9398 16.532 25.655 17.4143 25.655L30.6503 25.655C31.5325 25.655 32.2477 24.9398 32.2477 24.0575C32.2477 23.1753 31.5325 22.4601 30.6503 22.4601Z" fill="#744D1F"/>
<path d="M19.4681 12.419C20.4764 12.419 21.2938 11.6016 21.2938 10.5933C21.2938 9.58507 20.4764 8.7677 19.4681 8.7677C18.4599 8.7677 17.6425 9.58507 17.6425 10.5933C17.6425 11.6016 18.4599 12.419 19.4681 12.419Z" fill="#333333"/>
<path d="M28.5964 12.419C29.6047 12.419 30.422 11.6016 30.422 10.5933C30.422 9.58507 29.6047 8.7677 28.5964 8.7677C27.5881 8.7677 26.7707 9.58507 26.7707 10.5933C26.7707 11.6016 27.5881 12.419 28.5964 12.419Z" fill="#333333"/>
<path d="M20.1528 10.5934C20.5309 10.5934 20.8374 10.2868 20.8374 9.90874C20.8374 9.53064 20.5309 9.22412 20.1528 9.22412C19.7747 9.22412 19.4681 9.53064 19.4681 9.90874C19.4681 10.2868 19.7747 10.5934 20.1528 10.5934Z" fill="white"/>
<path d="M29.281 10.5933C29.6591 10.5933 29.9656 10.2868 29.9656 9.90868C29.9656 9.53057 29.6591 9.22406 29.281 9.22406C28.9029 9.22406 28.5964 9.53057 28.5964 9.90868C28.5964 10.2868 28.9029 10.5933 29.281 10.5933Z" fill="white"/>
<path opacity="0.5" d="M17.6425 14.9293C18.5247 14.9293 19.2399 14.2141 19.2399 13.3318C19.2399 12.4496 18.5247 11.7344 17.6425 11.7344C16.7602 11.7344 16.045 12.4496 16.045 13.3318C16.045 14.2141 16.7602 14.9293 17.6425 14.9293Z" fill="#FFB6C1"/>
<path opacity="0.5" d="M30.422 14.9293C31.3043 14.9293 32.0195 14.2141 32.0195 13.3318C32.0195 12.4496 31.3043 11.7344 30.422 11.7344C29.5398 11.7344 28.8246 12.4496 28.8246 13.3318C28.8246 14.2141 29.5398 14.9293 30.422 14.9293Z" fill="#FFB6C1"/>
<path d="M20.8374 12.4189C22.9673 13.9403 25.0972 13.9403 27.2272 12.4189" stroke="#333333" stroke-width="2" stroke-linecap="round"/>
<path d="M19.4681 5.11636C17.3382 2.07361 15.2083 0.856515 13.0784 1.46506" stroke="#333333" stroke-width="2"/>
<path d="M28.5964 5.11636C30.7263 2.07361 32.8562 0.856515 34.9862 1.46506" stroke="#333333" stroke-width="2"/>
<path d="M13.0784 2.3779C13.5825 2.3779 13.9912 1.96921 13.9912 1.46507C13.9912 0.960932 13.5825 0.552246 13.0784 0.552246C12.5742 0.552246 12.1655 0.960932 12.1655 1.46507C12.1655 1.96921 12.5742 2.3779 13.0784 2.3779Z" fill="#B12069"/>
<path d="M34.9862 2.3779C35.4903 2.3779 35.899 1.96921 35.899 1.46507C35.899 0.960932 35.4903 0.552246 34.9862 0.552246C34.482 0.552246 34.0733 0.960932 34.0733 1.46507C34.0733 1.96921 34.482 2.3779 34.9862 2.3779Z" fill="#B12069"/>
<path d="M24.0323 32.5012C26.1622 33.414 27.2272 34.4789 27.2272 35.696C27.2272 37.5217 26.1622 38.4345 24.0323 38.4345C21.9023 38.4345 20.8374 37.5217 20.8374 35.696C20.8374 34.4789 21.9023 33.414 24.0323 32.5012Z" fill="#FFD700"/>
<defs>
<radialGradient id="paint0_radial_2027_60" cx="0" cy="0" r="1" gradientUnits="userSpaceOnUse" gradientTransform="translate(7.33539 4.34056) rotate(19.844) scale(29.6057)">
<stop stop-opacity="0"/>
<stop offset="1" stop-opacity="0.3"/>
</radialGradient>
</defs>
</svg>
