<svg id="visual" viewBox="0 0 900 600" width="900" height="600" xmlns="http://www.w3.org/2000/svg" xmlns:xlink="http://www.w3.org/1999/xlink" version="1.1"><rect x="0" y="0" width="900" height="600" fill="#F5F7F9"></rect><path d="M0 115L15 111C30 107 60 99 90 96C120 93 150 95 180 108.7C210 122.3 240 147.7 270 160.2C300 172.7 330 172.3 360 152.7C390 133 420 94 450 83.8C480 73.7 510 92.3 540 89.8C570 87.3 600 63.7 630 73C660 82.3 690 124.7 720 124.5C750 124.3 780 81.7 810 71.7C840 61.7 870 84.3 885 95.7L900 107L900 0L885 0C870 0 840 0 810 0C780 0 750 0 720 0C690 0 660 0 630 0C600 0 570 0 540 0C510 0 480 0 450 0C420 0 390 0 360 0C330 0 300 0 270 0C240 0 210 0 180 0C150 0 120 0 90 0C60 0 30 0 15 0L0 0Z" fill="#FCAF3C" stroke-linecap="round" stroke-linejoin="miter"></path></svg>