<svg width="321" height="107" viewBox="0 0 321 107" fill="none" xmlns="http://www.w3.org/2000/svg">
<path d="M18.1397 25.7712C22.0016 22.5307 23.1621 17.5557 20.7317 14.6592C18.3013 11.7628 13.2003 12.0417 9.33841 15.2823C5.47648 18.5228 4.316 23.4978 6.74641 26.3943C9.17682 29.2907 14.2778 29.0118 18.1397 25.7712Z" fill="#F0F4FF"/>
<path d="M37.2384 20.6537C42.2032 21.5292 46.7602 19.2203 47.4168 15.4967C48.0734 11.7731 44.5809 8.04482 39.6161 7.16939C34.6513 6.29396 30.0942 8.60287 29.4377 12.3265C28.7811 16.0501 32.2736 19.7783 37.2384 20.6537Z" fill="#F0F4FF"/>
<path d="M31.0445 35.7353C38.8359 33.6476 43.4596 25.639 41.3719 17.8476C39.2843 10.0562 31.2757 5.4325 23.4843 7.52019C15.6929 9.60788 11.0692 17.6165 13.1569 25.4078C15.2446 33.1992 23.2531 37.823 31.0445 35.7353Z" fill="#FFB627"/>
<path d="M31.0445 35.7353C38.8359 33.6476 43.4596 25.639 41.3719 17.8476C39.2843 10.0562 31.2757 5.4325 23.4843 7.52019C15.6929 9.60788 11.0692 17.6165 13.1569 25.4078C15.2446 33.1992 23.2531 37.823 31.0445 35.7353Z" fill="url(#paint0_radial_2027_59)" fill-opacity="0.2"/>
<path d="M33.6569 19.9149L20.8719 23.3406C20.0197 23.5689 19.514 24.4449 19.7424 25.297C19.9707 26.1492 20.8466 26.6549 21.6988 26.4266L34.4838 23.0009C35.336 22.7725 35.8417 21.8966 35.6133 21.0444C35.385 20.1922 34.5091 19.6865 33.6569 19.9149Z" fill="#744D1F"/>
<path d="M35.1926 25.6461L22.4076 29.0718C21.5554 29.3001 21.0497 30.1761 21.278 31.0282C21.5064 31.8804 22.3823 32.3861 23.2345 32.1578L36.0195 28.7321C36.8716 28.5037 37.3774 27.6278 37.149 26.7756C36.9207 25.9234 36.0447 25.4177 35.1926 25.6461Z" fill="#744D1F"/>
<path d="M21.7927 18.8413C22.7666 18.5803 23.3446 17.5793 23.0836 16.6053C22.8226 15.6314 21.8216 15.0535 20.8476 15.3144C19.8737 15.5754 19.2957 16.5764 19.5567 17.5504C19.8177 18.5243 20.8187 19.1023 21.7927 18.8413Z" fill="#333333"/>
<path d="M30.6099 16.4787C31.5838 16.2178 32.1618 15.2167 31.9008 14.2428C31.6398 13.2689 30.6388 12.6909 29.6648 12.9519C28.6909 13.2128 28.1129 14.2139 28.3739 15.1878C28.6349 16.1617 29.6359 16.7397 30.6099 16.4787Z" fill="#333333"/>
<path d="M21.9814 16.9006C22.3467 16.8028 22.5634 16.4274 22.4655 16.0622C22.3677 15.6969 21.9923 15.4802 21.6271 15.5781C21.2618 15.6759 21.0451 16.0513 21.143 16.4165C21.2408 16.7818 21.6162 16.9985 21.9814 16.9006Z" fill="white"/>
<path d="M30.7986 14.5381C31.1639 14.4402 31.3806 14.0648 31.2827 13.6996C31.1849 13.3344 30.8095 13.1176 30.4442 13.2155C30.079 13.3134 29.8623 13.6888 29.9602 14.054C30.058 14.4192 30.4334 14.636 30.7986 14.5381Z" fill="white"/>
<path opacity="0.5" d="M20.6789 21.7386C21.5311 21.5102 22.0368 20.6343 21.8085 19.7821C21.5802 18.9299 20.7042 18.4242 19.852 18.6525C18.9999 18.8809 18.4941 19.7568 18.7225 20.609C18.9508 21.4612 19.8267 21.9669 20.6789 21.7386Z" fill="#FFB6C1"/>
<path opacity="0.5" d="M33.023 18.4309C33.8752 18.2026 34.3809 17.3267 34.1526 16.4745C33.9242 15.6223 33.0483 15.1166 32.1961 15.3449C31.3439 15.5733 30.8382 16.4492 31.0666 17.3014C31.2949 18.1536 32.1708 18.6593 33.023 18.4309Z" fill="#FFB6C1"/>
<path d="M23.1152 18.4869C25.5663 19.4051 27.6237 18.8539 29.2873 16.8331" stroke="#333333" stroke-width="2" stroke-linecap="round"/>
<path d="M19.9026 11.7875C17.0577 9.39969 14.6854 8.77533 12.7855 9.91441" stroke="#333333" stroke-width="2"/>
<path d="M28.7198 9.42494C29.9896 5.9346 31.732 4.20771 33.9468 4.24426" stroke="#333333" stroke-width="2"/>
<path d="M13.0218 10.7962C13.5087 10.6657 13.7977 10.1652 13.6672 9.67819C13.5368 9.19123 13.0362 8.90224 12.5493 9.03273C12.0623 9.16321 11.7733 9.66374 11.9038 10.1507C12.0343 10.6377 12.5348 10.9266 13.0218 10.7962Z" fill="#B12069"/>
<path d="M34.1831 5.126C34.6701 4.99552 34.959 4.49499 34.8286 4.00802C34.6981 3.52106 34.1975 3.23208 33.7106 3.36256C33.2236 3.49304 32.9346 3.99358 33.0651 4.48054C33.1956 4.9675 33.6961 5.25648 34.1831 5.126Z" fill="#B12069"/>
<path d="M31.3989 37.0579C33.6925 37.3883 34.9968 38.1414 35.3118 39.317C35.7844 41.0804 34.9919 42.2378 32.9346 42.7891C30.8772 43.3403 29.6123 42.7342 29.1398 40.9708C28.8248 39.7952 29.5778 38.4909 31.3989 37.0579Z" fill="#FFD700"/>
<path fill-rule="evenodd" clip-rule="evenodd" d="M44.103 44.7474C47.0045 43.1469 50.6542 44.2015 52.2548 47.103C57.8696 57.2816 79.0997 79.3714 116.87 78.9964C140.214 78.7646 151.713 73.7801 163.788 68.5457C164.118 68.4028 164.448 68.2597 164.779 68.1165C177.92 62.4277 191.838 56.7388 219.549 56.9995C263.227 57.4104 299.122 72.1858 312.054 79.8311C314.907 81.5175 315.852 85.197 314.166 88.0495C312.48 90.902 308.8 91.8474 305.948 90.161C294.638 83.4751 260.79 69.388 219.436 68.999C194.001 68.7597 181.812 73.8193 169.546 79.129C169.248 79.2577 168.951 79.3865 168.653 79.5156C155.971 85.0114 142.752 90.74 116.99 90.9958C74.2022 91.4206 49.186 66.3839 41.7474 52.8992C40.1469 49.9977 41.2015 46.348 44.103 44.7474Z" fill="#FFF4C7"/>
<path fill-rule="evenodd" clip-rule="evenodd" d="M38.103 51.7474C41.0045 50.1469 44.6542 51.2015 46.2548 54.103C51.8696 64.2816 73.0997 86.3714 110.87 85.9964C134.214 85.7646 145.713 80.7801 157.788 75.5457C158.118 75.4028 158.448 75.2597 158.779 75.1165C171.92 69.4277 185.838 63.7388 213.549 63.9995C257.227 64.4104 293.122 79.1858 306.054 86.8311C308.907 88.5175 309.852 92.197 308.166 95.0495C306.48 97.902 302.8 98.8474 299.948 97.161C288.638 90.4751 254.79 76.388 213.436 75.999C188.001 75.7597 175.812 80.8193 163.546 86.129C163.248 86.2577 162.951 86.3865 162.653 86.5156C149.971 92.0114 136.752 97.74 110.99 97.9958C68.2022 98.4206 43.186 73.3839 35.7474 59.8992C34.1469 56.9977 35.2015 53.348 38.103 51.7474Z" fill="#FFCC00"/>
<path d="M52.0352 92.0011V57.092H59.4159V71.4954H74.3988V57.092H81.7625V92.0011H74.3988V77.5807H59.4159V92.0011H52.0352Z" fill="black"/>
<path d="M97.6209 92.5125C94.9732 92.5125 92.6834 91.95 90.7516 90.825C88.8311 89.6886 87.3482 88.1091 86.3027 86.0863C85.2572 84.0522 84.7345 81.6943 84.7345 79.0125C84.7345 76.3079 85.2572 73.9443 86.3027 71.9216C87.3482 69.8875 88.8311 68.3079 90.7516 67.1829C92.6834 66.0466 94.9732 65.4784 97.6209 65.4784C100.269 65.4784 102.553 66.0466 104.473 67.1829C106.405 68.3079 107.894 69.8875 108.939 71.9216C109.985 73.9443 110.507 76.3079 110.507 79.0125C110.507 81.6943 109.985 84.0522 108.939 86.0863C107.894 88.1091 106.405 89.6886 104.473 90.825C102.553 91.95 100.269 92.5125 97.6209 92.5125ZM97.655 86.8875C98.8595 86.8875 99.8652 86.5466 100.672 85.8647C101.479 85.1716 102.087 84.2284 102.496 83.0352C102.916 81.842 103.127 80.4841 103.127 78.9613C103.127 77.4386 102.916 76.0807 102.496 74.8875C102.087 73.6943 101.479 72.7511 100.672 72.0579C99.8652 71.3647 98.8595 71.0182 97.655 71.0182C96.4391 71.0182 95.4163 71.3647 94.5868 72.0579C93.7686 72.7511 93.1493 73.6943 92.7288 74.8875C92.3197 76.0807 92.1152 77.4386 92.1152 78.9613C92.1152 80.4841 92.3197 81.842 92.7288 83.0352C93.1493 84.2284 93.7686 85.1716 94.5868 85.8647C95.4163 86.5466 96.4391 86.8875 97.655 86.8875Z" fill="black"/>
<path d="M120.57 76.8647V92.0011H113.309V65.8193H120.229V70.4386H120.536C121.116 68.9159 122.087 67.7113 123.451 66.825C124.815 65.9272 126.468 65.4784 128.411 65.4784C130.229 65.4784 131.815 65.8761 133.167 66.6716C134.519 67.467 135.57 68.6034 136.32 70.0807C137.07 71.5466 137.445 73.2966 137.445 75.3307V92.0011H130.184V76.6261C130.195 75.0238 129.786 73.7738 128.957 72.8761C128.127 71.967 126.985 71.5125 125.53 71.5125C124.553 71.5125 123.69 71.7227 122.94 72.1432C122.201 72.5636 121.621 73.1772 121.201 73.9841C120.792 74.7795 120.582 75.7397 120.57 76.8647Z" fill="black"/>
<path d="M153.18 92.5125C150.487 92.5125 148.169 91.967 146.225 90.8761C144.294 89.7738 142.805 88.217 141.76 86.2057C140.714 84.1829 140.191 81.7909 140.191 79.0295C140.191 76.3363 140.714 73.9727 141.76 71.9386C142.805 69.9045 144.277 68.3193 146.174 67.1829C148.083 66.0466 150.322 65.4784 152.89 65.4784C154.618 65.4784 156.225 65.7568 157.714 66.3136C159.214 66.8591 160.521 67.6829 161.635 68.7852C162.76 69.8875 163.635 71.2738 164.26 72.9443C164.885 74.6034 165.197 76.5466 165.197 78.7738V80.7682H143.089V76.2682H158.362C158.362 75.2227 158.135 74.2966 157.68 73.4897C157.225 72.6829 156.595 72.0522 155.788 71.5977C154.993 71.1318 154.066 70.8988 153.01 70.8988C151.907 70.8988 150.93 71.1545 150.078 71.6659C149.237 72.1659 148.578 72.842 148.1 73.6943C147.623 74.5352 147.379 75.4727 147.368 76.5068V80.7852C147.368 82.0807 147.606 83.2 148.083 84.1432C148.572 85.0863 149.26 85.8136 150.146 86.325C151.032 86.8363 152.083 87.092 153.299 87.092C154.106 87.092 154.845 86.9784 155.515 86.7511C156.186 86.5238 156.76 86.1829 157.237 85.7284C157.714 85.2738 158.078 84.717 158.328 84.0579L165.044 84.5011C164.703 86.1147 164.004 87.5238 162.947 88.7284C161.902 89.9216 160.549 90.8534 158.89 91.5238C157.243 92.1829 155.339 92.5125 153.18 92.5125Z" fill="black"/>
<path d="M171.796 101.819C170.875 101.819 170.011 101.745 169.205 101.598C168.409 101.461 167.75 101.285 167.227 101.069L168.864 95.6488C169.716 95.9102 170.483 96.0522 171.165 96.075C171.858 96.0977 172.455 95.9386 172.955 95.5977C173.466 95.2568 173.881 94.6772 174.199 93.8591L174.625 92.7511L165.233 65.8193H172.869L178.29 85.0466H178.563L184.034 65.8193H191.722L181.546 94.8307C181.057 96.2397 180.392 97.467 179.551 98.5125C178.722 99.5693 177.671 100.382 176.398 100.95C175.125 101.53 173.591 101.819 171.796 101.819Z" fill="black"/>
<path d="M193.654 92.0011V57.092H216.768V63.1772H201.035V71.4954H215.233V77.5807H201.035V92.0011H193.654Z" fill="black"/>
<path d="M226.937 57.092V92.0011H219.676V57.092H226.937Z" fill="black"/>
<path d="M242.663 92.5125C240.016 92.5125 237.726 91.95 235.794 90.825C233.874 89.6886 232.391 88.1091 231.345 86.0863C230.3 84.0522 229.777 81.6943 229.777 79.0125C229.777 76.3079 230.3 73.9443 231.345 71.9216C232.391 69.8875 233.874 68.3079 235.794 67.1829C237.726 66.0466 240.016 65.4784 242.663 65.4784C245.311 65.4784 247.595 66.0466 249.516 67.1829C251.447 68.3079 252.936 69.8875 253.982 71.9216C255.027 73.9443 255.55 76.3079 255.55 79.0125C255.55 81.6943 255.027 84.0522 253.982 86.0863C252.936 88.1091 251.447 89.6886 249.516 90.825C247.595 91.95 245.311 92.5125 242.663 92.5125ZM242.697 86.8875C243.902 86.8875 244.908 86.5466 245.715 85.8647C246.521 85.1716 247.129 84.2284 247.538 83.0352C247.959 81.842 248.169 80.4841 248.169 78.9613C248.169 77.4386 247.959 76.0807 247.538 74.8875C247.129 73.6943 246.521 72.7511 245.715 72.0579C244.908 71.3647 243.902 71.0182 242.697 71.0182C241.482 71.0182 240.459 71.3647 239.629 72.0579C238.811 72.7511 238.192 73.6943 237.771 74.8875C237.362 76.0807 237.158 77.4386 237.158 78.9613C237.158 80.4841 237.362 81.842 237.771 83.0352C238.192 84.2284 238.811 85.1716 239.629 85.8647C240.459 86.5466 241.482 86.8875 242.697 86.8875Z" fill="black"/>
<path d="M262.86 92.0011L255.735 65.8193H263.081L267.138 83.4102H267.377L271.604 65.8193H278.814L283.11 83.3079H283.331L287.32 65.8193H294.65L287.542 92.0011H279.854L275.354 75.5352H275.03L270.53 92.0011H262.86Z" fill="black"/>
<path d="M321.001 101.001C321.001 104.315 318.315 107.001 315.001 107.001C311.687 107.001 309.001 104.315 309.001 101.001C309.001 97.6874 311.687 95.0011 315.001 95.0011C318.315 95.0011 321.001 97.6874 321.001 101.001Z" fill="#FFCC00"/>
<defs>
<radialGradient id="paint0_radial_2027_59" cx="0" cy="0" r="1" gradientUnits="userSpaceOnUse" gradientTransform="translate(7.98245 14.1783) rotate(4.844) scale(29.6057)">
<stop stop-opacity="0"/>
<stop offset="1" stop-opacity="0.3"/>
</radialGradient>
</defs>
</svg>
